<svg xmlns="http://www.w3.org/2000/svg" width="302" height="17" fill="none"><g clip-path="url(#a)"><mask id="b" width="302" height="17" x="0" y="0" maskUnits="userSpaceOnUse" style="mask-type:luminance"><path fill="#fff" d="M302 0H0v17h302V0z"/></mask><g fill="#E5631F" mask="url(#b)"><path d="M301.646 1.825c.443.053.283-.502.354-.608-.744.123-.336.749-.354.608zm-7.368 1.251.133-.22-1.09.555.957-.335zm-6.89-.01c.655.943 2.497-.15 3.719.185l.204.212.558-.758c-1.488.123-3.427.626-4.481.361zm-3.675-2.044c.23.37-.797.318.859.115-.08-.044-.106-.062-.159-.097-.151 0-.355 0-.7-.026v.008z"/><path d="M284.412 1.05c.727-.027-.478-.309 0 0zm-3.347.22.956-.335c-.203-.22-1.054-.265-.735-.423-.983.185-.779.396-.221.749v.009zm-.903.686.496-.141c-.089-.088-.222-.124-.496.14zm1.541-.431-1.054.3c.141.15.15.458.478-.106-.089.282.124.01.567-.194h.009zm.593.141c.54.203 1.231.326.274.66 1.825-.131 1.559-.792-.274-.66zm4.747 2.38.717.273.62-.317c-.31.158-1.382-.256-1.337.044zM275.105.803c-.062.202.328.537.399.793l.708-.23c-.363-.131-1.054-.255-1.098-.554l-.009-.01zm.399.793-1.054.352c.947.035 1.116-.132 1.054-.352zm4.489 1.409 1.736-.732-2.072.74.336-.008zM271.076.793l.593-.467-1.063.705.47-.238zm-2.675.097c.443-.388-.611-.652-.142-.89-.726.07-1.346.405-1.904.705.594-.167 1.223-.132 2.046.185zm-2.984.256c.292-.097.602-.265.938-.44a2.91 2.91 0 0 0-.938.44zm7.235.704c-.08-.123-.239-.44-.832-.573l.416.564h.416v.01zm-.407.01-.018-.017a30.335 30.335 0 0 0-.894-.027c.115 0 .389.018.912.044zm.513-.008h-.106c.044.052.062.07.106 0zm4.464.66c-.62.317-1.913.66-.656 1.137.443-.388-.274-.661.656-1.137zm-3.95.043 1.124.123c-.026-.15-.23-.37.08-.52l-1.204.397zm-.549.185.549-.184-.417-.044-.132.229zm-5.384-1.074c-.488.247-1.01.273-1.612.308.646.106 1.31.168 1.939.159.089-.176.363-.494-.327-.476v.009zm2.382.141-.106.035c.07.044.123.062.106-.035zm-9.892.211.097.097.027-.097h-.124zm7.944.221c.487.106.77-.035 1.045-.212a7.876 7.876 0 0 1-1.152.106c-.035.08-.044.132.107.106zm-4.003-.821c.247.115.54.211.841.308-.248-.176-.753-.45-.841-.308zm5.685.266s.044-.018.071-.027c-.16-.123-.142-.061-.071.027z"/><path d="M269.455 1.683c-.248.079-.443.22-.638.343.293-.044.567-.105.797-.194a.539.539 0 0 1-.159-.158v.009zm-11.38 3.975c.08-.52 1.346-1.022 2.444-.467 1.072-.405.355-2.115-.593-3.076-.035.23-.026.44-1.133.758.389.282 2.462.643 1.532 1.128-1.47.282-1.205-.176-1.922-.45.611.644-1.86.97-1.532 1.922l1.284-.353c.027.15-.443.388-.08.52v.018zm3.968-3.508.451-.071c-.522-.088-.894-.29-1.585-.696-.761.264-.912.458-.965.634l2.249.053-.159.08h.009zm2.506-.088c-.354.573-1.444.82-.77 1.437 1.337-.053.938-.485 1.735-.732-2.161.15.62-.317-.947-.634a7.537 7.537 0 0 1 1.169-.159c-.39-.07-.762-.15-1.116-.255a.185.185 0 0 0 .053.035h.009c.097.07.124.115.018.07 0 0-.036.01-.045.01a.572.572 0 0 1-.097.21c-.629-.114-.098-.149.097-.21 0-.027.027-.054.027-.089l-2.161.317c.46.08 1.036.053 2.046-.017l-.018.017zm10.866 2.812c-.071-.052-.062-.088-.071-.132-.142.07-.195.115.071.132zm-.895-.336c.16-.08.284-.309.797-.256.443.168 0 .274.027.459.31-.15 1.08-.415.106-.688l-.15.08c-.868-.194-1.993-.9-1.842-.979.257.511.478.873 1.062 1.375v.009zm-5.047-1.093-1.798.291.921.494-.044-.3c1.027.115.806-.256.93-.485h-.009zm-9.848-1.708.23-.608-1.027.864.797-.256zm-2.338.088.08-.52-.62.317.54.203zm-131.863 9.657-.522.168a2.4 2.4 0 0 0 .522-.168zm3.826-.122.08-.264c-.168.15-.239.255-.08.264zm70.519-8.61c-.78-.468-1.665-1.208-1.559-.626l.248.564c.54-.115.948-.062 1.302.053l.009.009zm-39.267 4.477c.071.053.151.114.231.167.177-.203.345-.396.504-.564-.221.123-.469.256-.735.397zm-.469 2.387-1.027-.335c.23.124.566.238 1.027.335zm-55.464 3.359-.593.608c.965-.044.522-.317.593-.608zM233.297 2.3c-.673-.21-1.196-.299-1.665-.325.806.317 1.461.802 1.665.326zM126.691 5.34c-.319.114-.452.238-.443.37.328-.115.514-.23.443-.37zM229.71 2.01c.115.053.23.08.354.132.487-.105.975-.185 1.568-.158-.593-.238-1.275-.38-1.922.026zM28.843 16.585c-.053-.026-.123-.026-.177-.062-.009.08.062.08.177.062zm-22.44-4.317c.212-.053.567-.07.903-.106-.168-.027-.443 0-.903.106zM247.856 1.657c.496-.044.079-.062 0 0zm2.444 2.247c-.106.062-.186.15-.195.282a.432.432 0 0 1 .195-.282zm-25.478 1.744h-.044c.15.106.124.089.044 0zm23.787-3.736a3.714 3.714 0 0 0-.638-.168c.106.044.301.097.638.168zm-.107-.272c.168.017.31.035.434.052.062-.097 0-.158-.434-.053zm-1.337.061c.283-.009.549.018.806.053-.097-.035-.142-.07-.115-.088-.142 0-.354.018-.691.035zM69.314 12.69s-.07-.027-.106-.053c-.487.264-.266.211.106.053zm117.685-3.683.053-.026a.168.168 0 0 1-.071-.018l.018.044zm-1.771.467c.743-.732 1.177-.661 1.753-.52l-.629-1.64-1.124 2.16z"/><path d="m116.276 12.02 1.276.467c-1.47.908-2.577.661-1.373 1.34.097-1.798 4.844-.379 4.95-2.177l.842.344c-.239 0-.275.097-.505.088 1.638.793 1.133-1.348 3.215-1.172.726.106 1.239.352.752.582l1.586-.512c.469.018.363.335-.098.318l2.435-.238-.017.053c.336-.3 1.116-.767 1.488-.961.628.23-.302.203-.133.423l1.337-.493c.567.44-.531.934-1.47.907 1.337 1.736 1.107-.502 3.879.45l-1.267.273c.859.987 1.851.582 3.312 1.163-.354-.317-2.957-1.498-1.505-1.992.416.124.965.168 1.744-.22.036.635.797.45 1.772.38l-.036.845c1.036-.282.939-.705 1.541-1.11 1.169.044 1.435.687 1.727 1.225 1.877.07-1.328-1.005.877-1.243 1.567.264 2.648-.114 4.49-.687 1.098.255-.169.52.23.749l.939-.705c.239 0 .168.22.132.326.806-.291.036-.846 1.311-1.12.31-.942 2.674 1.27 4.215.168.399.23-.168.52-.044.846 2.143-.758 1.842-.564 3.596-1.551l1.532.511c-1.134-.6.265-1.392 1.496-2.053-.407-.291-.752-.555-.983-.67l1.984-.52c.248.132.053.432-.266.793.133-.07.257-.15.363-.211.727.29.372.793-.124 1.278a13.46 13.46 0 0 1-.735-.503c-.478.529-.921 1.11-.797 1.604.124-.106.372-.194.647-.247-.124.141-.204.274-.142.353.071.088.275-.106.593-.335l.488.925.097-.379 2.621.512c1.833-1.005 3.419-2.46 6.368-2.935-.718.714-.124 1.137-.142 1.956-.833-.846-2.285.441-3.817.309.806.061.638.458.443.608l2.71-.873c-.045.67.593.485 1.319.74-.575-1.312 2.01-.933 3.117-1.374.08.44-.168.908-1.532.837 1.524.952 1.896-1.604 3.392-.802-.328.018-.513-.044-.637.185.761-.414 2.665-.15 2.231.247l-.327.018c2.205.097 6.703-.168 7.004-1.305.027.141-.256 1.366-.38 1.595l3.834-3.886c-.319.978 1.063 3.234-.744 3.834.532.123 1.178.264 2.276-.097-.363-.133-.93-1.375-.443-1.472 1.373 1.049.948.555 2.622 1.436-.54-.194.017-1.718.868-1.692-.124.23.106 1.49-.204 1.657l2.072-1.533c-.522.282-.062 1.26.416 1.674-.221-.282 1.825-.018 2.383-.176l-.904-.326c2.383.167 2.303-2.142 4.667-2.115-.283.317-.664 1.903.541 2.062.531-.776 2.355-3.72 4.436-4.345l.408.423 1.594-.529c-.974 1.164-3.729 3.64-5.243 4.61.895.326.257.51 1.594.44.478.397-.717.635-1.107.67l3.109.194c-.16-.89 2.355-.943 2.222-1.675l-3.356.996c-.159-.881 1.895-2.573 4.109-2.45.567.344-.39 1.587-.336 1.886.283-.308 2.081-.626 2.284-.405l-.921.493c1.231.309 1.975-1.216 3.463-.387.514.044 1.541 1.119 1.621.59-.851-.996-1.072-4.133-.532-4.9.177.062 2.692.925 3.277 1.41.85.784-1.222 1.921-.496 2.591.027-.247.487-.555.673-.652.54.194-.204.758.948.626.177-.908 2.364.035.531-.776 1.133-.282 1.213.168 2.542.097-.434-.573 1.16-2 2.293-2.282-.062.229.195.52.319.66 2.329.036 3.587.441 5.756.415.204.211 1.258.467.815.863.31-.167.593-.476 1.257-.502 1.302.758-1.487.141-.487 1.066.08-.528 1.718-.749 2.666-1.084-.301-.802-2.205-.123-3.153.212-.017-1.12 1.621-2.309 3.888-2.855 1.798-.3.788.713 1.098.546 3.392.15 2.861-1.983 5.686-1.216 1.124.696.07 1.41.318 1.921-1.461.29-2.258-.423-3.259-.379l1.231.317c-.46.247-1.443.432-1.983.238.947.626 5.721.035 8.342.608.46-.238 1.257-.493.877-.775l-.824.106c-.77-.564 1.55-.802.496-1.067 1.107-.414 2.347-1.057 3.905-.749l.301.81c-.035-.237-1.027-.475-1.461-.22.647-.36 2.409 1.076 3.109 0l-1.099-.555c1.107-.414 2.48-1.286 3.87-1.048-.637-.794-.318.097-1.31-.838.859 1.155-3.543-.017-2.161 1.199-1.018-1.075-1.753-.45-3.082-1.357.044.264.469.51-.691.388a1.32 1.32 0 0 1-.256.237c-.036 0-.045-.008-.08-.017a.148.148 0 0 1 .062.035c-.053.044-.053.053.026.009.275.114.505.255.594.405-.567.617-2.418.617-3.038.943-.691-.123.284-.308-.097-.59l-.93.485c-.097-.59-1.842-.961-.221-1.331h-1.462c-.867-.326-2.054-.45-2.78-.185-.691-.124-1.736.678-1.143.211l-2.285.397-.026-.15c-2.267-.044-4.641 1.049-7.244 0-.762.159-1.541.353-2.825.203l-.257-.511c-.974.193-2.949-.468-3.356.079-1.081-1.366-4.756-.22-6.474-.432l-.053.67c-1.187-.018-2.32.194-3.781.485l.097.59c-1.258.511-3.268-.361-5.269-.264.133-.23.637-.177 1.001-.044-2.418-1.305-5.031 1.083-7.227.15-.54.228-.93.158-1.31.026a.29.29 0 0 0 .132-.035h-.221c-.239-.097-.487-.212-.762-.3.231.14.452.255.638.3a8.204 8.204 0 0 0-1.665.273l-.274-.635c-.054 0-.089.018-.142.018-.611-.22-.487.308-.151.784a3.49 3.49 0 0 0-.814.406c-.514-1.014-1.621.379-2.321-.697-.407.547-3.108.476-3.409 1.604-.027-.15-.213-.211.124-.229-.691-.114-1.39-.229-2.002.106l-.309-.802-1.479 1.128c-.93-.467-1.32-.74-.425-1.392-2.179 1.013-1.772.405-3.622 1.41l.079-.53c-.664.036-1.718.768-2.134.345-1.523-.952-7.403.061-11.265-.758.789 1.515-1.806-.644-1.921.564-.231-.353-.78-.547-.16-.882-1.948.423-2.958-.484-4.286.564-.239-.36.399-.546.195-.758-.151.08-.611.335-.824.124-.203-.212.275-.317.585-.485-2.002.124-2.17 1.252-2.276 2.31-1.027-.468-1.532-.38-2.241.334-.363-.335-.965-.679.275-.837-.7-.027-4.286-.37-4.331.476-.23-.212-.983-.036-1.16.07-1.567 0-1.709-.07-3.25.053l.434.123c-.575 1.04-1.275.274-2.515.441l.036-.106c-2.87-.634-1.214.397-4.056-.343l.177.625c-.213 1.375-2.515-.713-4.127-.132l.602.344c-.877.502-2.559-1.763-3.462-1.904-.204-.114.301-.202.566-.3-2.373-.722-.274.838-2.01 1.093-.336-.431.372-1.154-.806-1.198-.602-.344-3.356 1.569-4.986.775.363.335.727.661-.071.952-1.239.176-3.409-1.172-4.489-.035-.16-.088-.222-.176-.24-.264-.938.317-3.064.59-3.613 1.207-.965-2.15-5.862 1.304-5.924-.714l-2.914.23.071-.212c-1.868-.062-2.515.458-3.144.978-.434-.115-.133-.317-.097-.432-2.745-.282-3.011-.185-5.252.925l-.265-.643c-.602.406-3.994-.846-6.633.035.026-.079.07-.202.283-.308-2.975.899-7.297-1.48-8.28.96l-1.957.688c2.577.062-.328 1.057.744 1.392-1.001.194-2.648-.59-1.408-.775l.203.106c.399-1.27-3.214-.282-3.188-1.128-5.047.308-10.016-.141-14.753.07l.593.934-1.656.035c-.443-.202-.62-.722.558-.749-.647-.51-1.948.564-1.975.776-2.33-.264.841-1.172.133-1.163l-.957.123.222.097c-.762.44-.806.855-2.223.89-.903-.141-.496-.573-.85-.59 0-.07-.124-.097-.54 0l-2.082.026.877.714c-.903.423-1.957.062-.947.881-1.488-1.26-7.785-.053-8.68-.405-1.257.634-2.532.696-4.117.722.398.133.69.979-.682.952.39-1.798-2.541-.617-3.72-1.824 1.037.784-3.86.432-2.24 1.542-1.142-.08-.106-.66-1-1.022-2.666.837-5.987-.08-9.317.361-.035.238.54.555-.15.943l-1.842-1.049c-.656.16-.523 1.375-1.78.653.186.185.451.467.017.564-6.624-.732-13.31 1.789-20.102.123.93.388.336.476-.355.538.452.079.027.572.142.88l-2.843-.687c-.442.908-2.975.265-3.214 1.12l.868-.212c-1.098 1.066 1.789 2.08 1.709 3.35 1.23-1.208 3.569 1.418 5.614-.327.496.23-.38.432-.106.714.505-.582 1.16-.74 2.391-.573l-.133.141c3.419-.361 4.924.062 8.794.167l-.328-.608c.833.036 1.019.22 1.417.344.886-1.005-2.329.097-1.532-1.005 1.178 1.199 5.836-.352 6.678 1.05 1.275-.071-.417-.697.85-.776l.363.37.292-.52c.841.026 1.293.493 1.346.82-.203-.027-.567.132-.788.167 1.116.388 3.038-.353 3.418-.22l-1.24-.168c3.454-.59 7.723-.344 11.035-1.33l-.275-.283c2.533-.696 2.073.203 4.871-.211l-.097.08c.549-.327 1.292-.52 2.063-.53-.69.388 1.382.59.47 1.031 2.745-.749 1.345-.537 3.117-1.745l.451.468c.602-.476.638-.714 2.037-.926-1.133.485.939.696-.319 1.322 3.011.89 4.322-1.322 5.765.168 1.276-1.428-2.594-.617-1.85-.943-.665-.406 1.062-1.075 1.992-.987.948-.018 1.7 1.648 4.074 1.489-.24 0-.248.106-.479.114.904.3 1.71-.564 2.834-.061.567-.855 1.417-.027 1.532-1.084l-2.16.361c1.222-.344 2.31-1.621 4.374-1.146-.15.22-.735.53-1.142.706.611.273 1.133-.265 1.762.017-.115 1.058-2.63.37-3.914 1.243.664.405 2.462-.89 1.86.273.876-1.49 2.347.053 3.896-1.128l-.07.635c.247-.115.761-.441 1.23-.45l-.806.855c1.267-.767 2.542.467 3.764.035-2.612.15-.629-.723-1.753-1.128 3.179-1.005 1.94 1.542 5.526 1.066-.487.115-1.851-.282-1.107-.617.69.097 1.611.291 2.046.6 2.382-.247-.4-.626.602-1.058.85.723 1.16-.37 2.196-.66l.035.634c2.746.273.656-1.366 3.135-.987l-.992.934 1.267-.29-.23.74c1.363-.609 1.806-.485 3.179-.353-.337-.432.124-1.163 1.328-1.243.841.335-.434.626 1.275.45-.363.414-.761.943-1.54.387-.063.212-.364.423-.434.626.903.388 2.231-.009 2.851-.044-.239-.009-.522-.035-.673-.114l2.435-.996c.399.22.098.431-.194.625.495-.088.832-.396 1.567-.484-.168.528-.097 1.057-1.125 1.348l2.338-.678c.168.22 1.24.563.939.766 1.32.247 3.162-1.146 4.915-.828.089-.106.266-.212.629-.3 1.638.044 3.108.617 5.012-.185l1.134.881c1.505-.282-1.532-1.101.974-1.568 1.771-.38.699.766 1.337.995.868-.502 2.373-1.515 4.047-.828-.531.194-.965.08-1.47.168l.035-.036zm18.66-1.154c-.355.15-1.063.582-1.346.22.38-.749.717-.405 1.346-.22zm28.356-2.503c-.266.22-.682.132-1.16-.097a2.255 2.255 0 0 1 1.16.097zm79.126-6.125s-.026.018-.035.035c-.815-.238-.523-.14.035-.035zm1.683.256c.168-.089.159-.177.08-.265-.116.159-.496.176-.921.141.124.168.336.282.841.132v-.008zM63.779 8.689l.337.15c-.726.22-.532.044-.337-.15z"/><path d="M160.095 9.332a.627.627 0 0 1-.168-.344c-.142.115-.142.238.168.344zm-55.42 3.525h-.053s-.044.07-.053.115l.106-.115zm113.496-4.573c-.345-.088-.54-.203-.673-.317-.018.158.142.282.673.317zm34.821-6.954-1.071.176c.522-.035.708.106.974.203-.027-.15-.23-.361.106-.379h-.009zm9.378 3.86c.16-.079.337-.008.487-.088l-.044-.3c-.673.027-1.133.265-.443.389zm-8.36-1.753c.089.537.762.343 1.515.238h-.133c.213-.75-.584-.494-1.382-.247v.009zm1.692.22a3.1 3.1 0 0 1 .7-.018c.088-.3-.284-.061-.7.018zm-9.476-1.541c.363.132.213-.688.425-.468.39-.687-2.373.846-.425.468zm8.413 3.084-.274-.66-.417.537.691.123zm-5.951-.432 1.205.176c-.018-.114.132-.176.318-.229-.744-.018-1.558-.141-1.523.053zm1.523-.062c.39.01.753 0 .966-.114-.213.009-.656.035-.966.114zm2.781.704-.354-.132-.85-.044 1.204.177zm-17.251-.615-1.311.211c-.132.23.231.362.718.265.31-.159.797-.256.593-.476zm3.994 1.761c-.354-.132-.381-.282-.584-.494l-.027.82.611-.326zm-3.826.239c-.124.23-1.895.679-.23.608.133-.23 1.444-.432.23-.608zm-19.81-.722.336-.018-.07-1.348-.266 1.366zM198.733 9.64c1.558.291.354-.837 1.762-.467.354-.326-1.16-.3-.788-.581-.93.352-1.426.176-.974 1.057v-.008zm.974-1.055c.15-.053.31-.124.478-.212a1.958 1.958 0 0 0-.478.212zM2.692 11.792l-1.018-.212.673.405.345-.193zM.841 12.92l-.292-.838-.549.82c.221-.053.655-.159.841.026v-.009zm136.937-.432.071-.212c-.159-.22-.398-.23-.868-.247l.797.45v.009zm-13.576-.114.231.009-.47-.758.239.75zm-11.335 1.444c.469.009 1.001-.185 1.47-.167-1.01.176-1.638-.793-1.47.167z"/></g></g><defs><clipPath id="a"><path fill="#fff" d="M0 0h302v17H0z"/></clipPath></defs></svg>